<svg xmlns="http://www.w3.org/2000/svg" width="160" height="160" viewBox="0 0 160 160">
  <g id="Group_6683" data-name="Group 6683" transform="translate(-645 -270)">
    <circle id="Ellipse_686" data-name="Ellipse 686" cx="80" cy="80" r="80" transform="translate(645 270)" fill="#304653"/>
    <path id="Intersection_1" data-name="Intersection 1" d="M49.87,114.277A72.887,72.887,0,0,1,0,94.629v-.351a29.967,29.967,0,0,1,29.922-30H33.64a38.668,38.668,0,0,0,32.461,0h3.718a29.968,29.968,0,0,1,29.922,30v.35A72.89,72.89,0,0,1,49.87,114.277ZM21.373,28.57a28.5,28.5,0,1,1,28.5,28.569A28.532,28.532,0,0,1,21.373,28.57Z" transform="translate(675.472 305.68)" fill="#182730"/>
  </g>
</svg>
